<?xml version="1.0" encoding="utf-8"?>
<!-- Generator: Adobe Illustrator 15.0.0, SVG Export Plug-In . SVG Version: 6.00 Build 0)  -->
<!DOCTYPE svg PUBLIC "-//W3C//DTD SVG 1.1//EN" "http://www.w3.org/Graphics/SVG/1.1/DTD/svg11.dtd">
<svg version="1.1" id="Capa_1" xmlns="http://www.w3.org/2000/svg" xmlns:xlink="http://www.w3.org/1999/xlink" x="0px" y="0px"
	 width="1760px" height="880px" viewBox="0 0 1760 880" enable-background="new 0 0 1760 880" xml:space="preserve">
<g>
	<g>
		<path fill="#FFFFFF" d="M1250.526,579.411c-54.283,0-107.452-8.476-157.845-25.104c-24.594-8.476-52.521-1.944-68.686,14.544
			L924.093,644.3C809.461,583.117,736.097,509.798,675.748,396l73.41-97.541c18.48-18.48,25.104-45.529,17.184-70.863
			c-16.767-50.716-25.288-103.933-25.288-158.123C741.054,31.17,709.884,0,671.58,0H509.474C471.17,0,440,31.17,440,69.474
			C440,516.374,803.626,880,1250.526,880c38.304,0,69.474-31.17,69.474-69.474V648.885
			C1320,610.581,1288.83,579.411,1250.526,579.411z"/>
	</g>
</g>
</svg>
